#!OML:ASF H:\Terrain\Patient Classification 1\Walking\liu\liu.ASF
:FULLY-SPECIFIED
:DEGREES
146
root 8.625040 15.942100 -16.340500 6.333870 8.397660 3.774280
lowerback -7.372618 -3.663055 -4.928759
upperback -1.315457 -4.597582 2.386593
thorax 3.298064 -2.352680 4.802688
lowerneck -21.064560 -6.428213 -15.274051
upperneck 19.185541 -7.600164 14.240490
head 10.598016 -3.071904 6.465096
rclavicle 0.000000 0.000000
rhumerus -53.109100 4.452074 -89.740097
rradius 31.917931
rwrist -17.027781
rhand -31.551521 -24.940960
rfingers 7.837522
rthumb -2.250270 -57.907852
lclavicle 0.000000 0.000000
lhumerus -38.989059 -1.165758 99.942703
lradius 20.776360
lwrist -12.394030
lhand -11.783421 -24.814680
lfingers 7.837522
lthumb 16.827579 7.540995
rfemur -45.247513 2.295777 17.008200
rtibia 43.399841
rfoot -7.050549 -3.954907
rtoes -18.138342
lfemur 30.580551 5.841671 -20.333281
ltibia 0.000000
lfoot 7.441632 -1.314236
ltoes -18.865881
147
root 8.605380 15.978100 -16.180500 6.398540 8.715530 3.501460
lowerback -7.109641 -3.735215 -4.507459
upperback -1.482657 -4.735467 2.456278
thorax 2.967811 -2.407218 4.643980
lowerneck -21.245951 -6.451786 -15.141720
upperneck 19.366930 -7.635705 14.112780
head 10.689349 -3.086633 6.394256
rclavicle -0.000000 0.000000
rhumerus -53.088531 4.568817 -89.741966
rradius 31.536230
rwrist -15.970901
rhand -30.681200 -24.863739
rfingers 7.837522
rthumb -1.409749 -57.837231
lclavicle -0.000000 0.000000
lhumerus -39.635754 0.449679 99.135956
lradius 19.904720
lwrist -12.162260
lhand -11.601480 -25.007952
lfingers 7.837522
lthumb 17.002701 7.334261
rfemur -44.641083 1.935329 17.633440
rtibia 43.580570
rfoot -7.639137 -3.543375
rtoes -18.525541
lfemur 30.719591 5.860118 -19.750500
ltibia 0.000000
lfoot 9.621182 -0.568261
ltoes -18.429951
148
root 8.578980 16.014099 -16.026199 6.404510 9.009990 2.868840
lowerback -6.944586 -3.694306 -3.786695
upperback -1.484076 -4.739471 2.653233
thorax 2.837505 -2.401718 4.453119
lowerneck -21.482670 -6.548476 -15.162401
upperneck 19.155951 -7.740304 14.227180
head 10.680890 -3.116047 6.416146
rclavicle -0.000000 -0.000000
rhumerus -53.019562 4.550854 -89.552544
rradius 31.462751
rwrist -15.144140
rhand -30.348560 -25.200781
rfingers 7.837522
rthumb -1.088464 -58.176029
lclavicle -0.000000 -0.000000
lhumerus -39.963661 1.359545 98.588600
lradius 19.233831
lwrist -12.009581
lhand -11.365200 -24.832500
lfingers 7.837522
lthumb 17.230291 7.491991
rfemur -44.007370 1.769779 18.659740
rtibia 43.618851
rfoot -8.045731 -3.244857
rtoes -18.376932
lfemur 28.426199 6.122886 -18.615080
ltibia 4.647500
lfoot 10.014004 -0.171868
ltoes -16.572269
149
root 8.549080 16.054501 -15.873400 6.497650 9.120450 2.350450
lowerback -7.043487 -3.624478 -3.231074
upperback -1.372723 -4.685175 2.791613
thorax 2.973157 -2.374713 4.281233
lowerneck -21.966890 -6.653691 -15.104760
upperneck 18.851252 -7.844298 14.368860
head 10.683102 -3.128356 6.430754
rclavicle 0.000000 -0.000000
rhumerus -52.519390 3.993693 -88.896942
rradius 31.455160
rwrist -13.826560
rhand -29.091921 -24.119591
rfingers 7.837522
rthumb 0.125257 -57.097263
lclavicle 0.000000 -0.000000
lhumerus -40.304989 2.375725 97.829933
lradius 19.106449
lwrist -12.793550
lhand -8.623582 -22.924330
lfingers 7.837522
lthumb 19.869411 9.174979
rfemur -43.387741 1.804187 19.498930
rtibia 43.456268
rfoot -8.402405 -2.975445
rtoes -17.067160
lfemur 23.904760 6.778816 -17.570080
ltibia 13.501401
lfoot 8.649543 -0.446939
ltoes -16.004890
150
root 8.517350 16.101000 -15.726400 6.724050 9.256230 1.981730
lowerback -7.059987 -3.679698 -2.916683
upperback -1.439394 -4.782052 2.904693
thorax 2.907905 -2.418713 4.213924
lowerneck -22.138161 -6.617325 -15.026111
upperneck 18.734322 -7.817326 14.515930
head 10.673092 -3.089185 6.472059
rclavicle 0.000000 -0.000000
rhumerus -52.084232 4.175765 -88.978783
rradius 31.309631
rwrist -14.100460
rhand -29.084332 -19.424572
rfingers 7.837522
rthumb 0.132490 -52.402241
lclavicle 0.000000 -0.000000
lhumerus -40.826939 3.691787 96.894600
lradius 18.812641
lwrist -14.034461
lhand -4.930035 -20.808479
lfingers 7.837522
lthumb 23.420321 10.927048
rfemur -42.814861 1.666720 20.217890
rtibia 43.116814
rfoot -9.022970 -2.689555
rtoes -16.177481
lfemur 20.812441 7.208014 -16.875099
ltibia 19.245380
lfoot 8.364378 -0.180815
ltoes -14.797530
151
root 8.486580 16.143700 -15.584800 6.854700 9.412000 1.533660
lowerback -6.805480 -3.692909 -2.533960
upperback -1.563188 -4.830595 3.044910
thorax 2.624919 -2.434861 4.158836
lowerneck -22.123640 -6.611682 -14.892350
upperneck 18.792950 -7.855320 14.503390
head 10.691010 -3.099536 6.440511
rclavicle 0.000000 0.000000
rhumerus -51.783493 4.325002 -89.030258
rradius 31.318651
rwrist -14.326730
rhand -30.820900 -25.079012
rfingers 7.837522
rthumb -1.544719 -58.051620
lclavicle 0.000000 0.000000
lhumerus -41.212383 4.182563 96.378151
lradius 18.354050
lwrist -14.615810
lhand -3.327115 -20.402472
lfingers 7.837522
lthumb 24.959330 11.152130
rfemur -42.107559 1.505636 21.053890
rtibia 42.658112
rfoot -9.625495 -2.380983
rtoes -15.861341
lfemur 18.241301 7.547309 -16.129190
ltibia 24.074492
lfoot 8.301733 0.451343
ltoes -12.273360
152
root 8.457140 16.178801 -15.445400 6.938490 9.545760 1.135280
lowerback -6.564129 -3.581248 -2.153679
upperback -1.635447 -4.710123 3.192255
thorax 2.389310 -2.368795 4.125561
lowerneck -22.225941 -6.800310 -15.028750
upperneck 18.686140 -8.076167 14.597550
head 10.716035 -3.197491 6.459486
rclavicle 0.000000 -0.000000
rhumerus -51.977863 5.554494 -90.169754
rradius 31.757772
rwrist -18.246910
rhand -34.704670 -22.680901
rfingers 7.837522
rthumb -5.295356 -55.598732
lclavicle 0.000000 -0.000000
lhumerus -41.554592 3.515050 96.619713
lradius 18.360100
lwrist -14.141601
lhand -3.239566 -20.957092
lfingers 7.837522
lthumb 25.043371 10.587181
rfemur -41.314133 1.607221 21.724010
rtibia 42.082371
rfoot -10.129955 -2.225212
rtoes -15.033371
lfemur 15.849461 7.817799 -15.505051
ltibia 28.413990
lfoot 9.137183 1.311574
ltoes -11.770110
153
root 8.426210 16.216801 -15.309800 7.044990 9.718090 0.841884
lowerback -6.394597 -3.515402 -1.967768
upperback -1.735569 -4.637259 3.394897
thorax 2.187647 -2.328282 4.250455
lowerneck -22.039162 -6.969050 -15.622530
upperneck 18.288050 -8.228198 15.081881
head 10.614472 -3.264217 6.705237
rclavicle -0.000000 0.000000
rhumerus -51.756649 5.399999 -89.490616
rradius 32.017590
rwrist -17.141081
rhand -33.314491 -24.191860
rfingers 7.837522
rthumb -3.952949 -57.136311
lclavicle -0.000000 0.000000
lhumerus -41.921112 2.965083 96.982384
lradius 18.367359
lwrist -14.117400
lhand -4.118004 -21.433170
lfingers 7.837522
lthumb 24.200109 10.212465
rfemur -40.487923 1.699159 22.249371
rtibia 41.425011
rfoot -10.600590 -2.098910
rtoes -14.003770
lfemur 13.477750 7.944805 -15.108720
ltibia 32.448681
lfoot 10.547350 2.215422
ltoes -10.752159
154
root 8.401450 16.260500 -15.175200 7.022460 9.762930 0.593321
lowerback -6.159967 -3.481038 -1.852994
upperback -1.748637 -4.602356 3.564814
thorax 2.045208 -2.309109 4.378583
lowerneck -21.759651 -6.996286 -15.886750
upperneck 17.995781 -8.237802 15.267780
head 10.483770 -3.277351 6.810342
rclavicle 0.000000 -0.000000
rhumerus -51.559971 5.707262 -89.224411
rradius 32.315250
rwrist -17.451061
rhand -33.414150 -25.684340
rfingers 7.837522
rthumb -4.049111 -58.627144
lclavicle 0.000000 -0.000000
lhumerus -42.446579 2.788940 97.062683
lradius 18.789761
lwrist -14.854400
lhand -5.854266 -21.935760
lfingers 7.837522
lthumb 22.532291 9.897679
rfemur -39.525532 1.687257 22.748991
rtibia 40.770622
rfoot -10.942361 -1.833953
rtoes -13.495461
lfemur 11.408650 8.086881 -14.848021
ltibia 36.166790
lfoot 11.507650 3.352613
ltoes -8.091501
